STARTFONT 2.1
FONT -custom-small5x3-medium-r-normal--8-80-75-75-c-30-iso10646-1
SIZE 8 75 75
FONTBOUNDINGBOX 3 5 0 0
STARTPROPERTIES 2
FONT_ASCENT 5
FONT_DESCENT 0
ENDPROPERTIES
CHARS 41
STARTCHAR space
ENCODING 32
SWIDTH 300 0
DWIDTH 2 0
BBX 3 5 0 0
BITMAP
00
00
00
00
00
ENDCHAR
STARTCHAR period
ENCODING 46
SWIDTH 300 0
DWIDTH 3 0
BBX 3 5 0 0
BITMAP
00
00
00
00
4
ENDCHAR
STARTCHAR A
ENCODING 65
SWIDTH 300 0
DWIDTH 4 0
BBX 3 5 0 0
BITMAP
7
5
7
5
5
ENDCHAR
STARTCHAR B
ENCODING 66
SWIDTH 300 0
DWIDTH 4 0
BBX 3 5 0 0
BITMAP
7
5
6
5
7
ENDCHAR
STARTCHAR C
ENCODING 67
SWIDTH 300 0
DWIDTH 4 0
BBX 3 5 0 0
BITMAP
7
4
4
4
7
ENDCHAR
STARTCHAR D
ENCODING 68
SWIDTH 300 0
DWIDTH 4 0
BBX 3 5 0 0
BITMAP
6
5
5
5
6
ENDCHAR
STARTCHAR E
ENCODING 69
SWIDTH 300 0
DWIDTH 4 0
BBX 3 5 0 0
BITMAP
7
4
7
4
7
ENDCHAR
STARTCHAR F
ENCODING 70
SWIDTH 300 0
DWIDTH 4 0
BBX 3 5 0 0
BITMAP
7
4
7
4
4
ENDCHAR
STARTCHAR G
ENCODING 71
SWIDTH 300 0
DWIDTH 4 0
BBX 3 5 0 0
BITMAP
7
4
5
5
7
ENDCHAR
STARTCHAR H
ENCODING 72
SWIDTH 300 0
DWIDTH 4 0
BBX 3 5 0 0
BITMAP
5
5
7
5
5
ENDCHAR
STARTCHAR I
ENCODING 73
SWIDTH 300 0
DWIDTH 2 0
BBX 3 5 0 0
BITMAP
4
4
4
4
4
ENDCHAR
STARTCHAR J
ENCODING 74
SWIDTH 300 0
DWIDTH 4 0
BBX 3 5 0 0
BITMAP
1
1
1
5
7
ENDCHAR
STARTCHAR K
ENCODING 75
SWIDTH 300 0
DWIDTH 4 0
BBX 3 5 0 0
BITMAP
5
5
6
5
5
ENDCHAR
STARTCHAR L
ENCODING 76
SWIDTH 300 0
DWIDTH 4 0
BBX 3 5 0 0
BITMAP
4
4
4
4
7
ENDCHAR
STARTCHAR M
ENCODING 77
SWIDTH 500 0
DWIDTH 6 0
BBX 5 5 1 0
BITMAP
F8
A8
A8
A8
A8
ENDCHAR
STARTCHAR N
ENCODING 78
SWIDTH 300 0
DWIDTH 4 0
BBX 3 5 0 0
BITMAP
7
5
5
5
5
ENDCHAR
STARTCHAR O
ENCODING 79
SWIDTH 300 0
DWIDTH 4 0
BBX 3 5 0 0
BITMAP
7
5
5
5
7
ENDCHAR
STARTCHAR P
ENCODING 80
SWIDTH 300 0
DWIDTH 4 0
BBX 3 5 0 0
BITMAP
7
5
7
4
4
ENDCHAR
STARTCHAR Q
ENCODING 81
SWIDTH 300 0
DWIDTH 4 0
BBX 3 6 0 -1
BITMAP
7
5
5
5
7
2
ENDCHAR
STARTCHAR R
ENCODING 82
SWIDTH 300 0
DWIDTH 4 0
BBX 3 5 0 0
BITMAP
7
5
6
5
5
ENDCHAR
STARTCHAR S
ENCODING 83
SWIDTH 300 0
DWIDTH 4 0
BBX 3 5 0 0
BITMAP
7
4
7
1
7
ENDCHAR
STARTCHAR T
ENCODING 84
SWIDTH 300 0
DWIDTH 4 0
BBX 3 5 0 0
BITMAP
7
2
2
2
2
ENDCHAR
STARTCHAR U
ENCODING 85
SWIDTH 300 0
DWIDTH 4 0
BBX 3 5 0 0
BITMAP
5
5
5
5
7
ENDCHAR
STARTCHAR V
ENCODING 86
SWIDTH 300 0
DWIDTH 4 0
BBX 3 5 0 0
BITMAP
5
5
5
5
2
ENDCHAR
STARTCHAR W
ENCODING 87
SWIDTH 600 0
DWIDTH 6 0
BBX 5 5 1 0
BITMAP
A8
A8
A8
A8
F8
ENDCHAR
STARTCHAR X
ENCODING 88
SWIDTH 300 0
DWIDTH 4 0
BBX 3 5 0 0
BITMAP
5
5
2
5
5
ENDCHAR
STARTCHAR Y
ENCODING 89
SWIDTH 300 0
DWIDTH 4 0
BBX 3 5 0 0
BITMAP
5
5
7
2
2
ENDCHAR
STARTCHAR Z
ENCODING 90
SWIDTH 300 0
DWIDTH 4 0
BBX 3 5 0 0
BITMAP
7
1
2
4
7
ENDCHAR
STARTCHAR Adieresis
ENCODING 196
SWIDTH 300 0
DWIDTH 4 0
BBX 3 5 0 0
BITMAP
5
7
5
7
5
ENDCHAR
STARTCHAR Aring
ENCODING 197
SWIDTH 300 0
DWIDTH 4 0
BBX 3 5 0 0
BITMAP
2
7
5
7
5
ENDCHAR
STARTCHAR Odieresis
ENCODING 214
SWIDTH 300 0
DWIDTH 4 0
BBX 3 5 0 0
BITMAP
5
7
5
5
7
ENDCHAR
STARTCHAR 0
ENCODING 48
SWIDTH 300 0
DWIDTH 4 0
BBX 3 5 0 0
BITMAP
7
5
5
5
7
ENDCHAR
STARTCHAR 1
ENCODING 49
SWIDTH 300 0
DWIDTH 4 0
BBX 3 5 0 0
BITMAP
6
2
2
2
7
ENDCHAR
STARTCHAR 2
ENCODING 50
SWIDTH 300 0
DWIDTH 4 0
BBX 3 5 0 0
BITMAP
7
1
7
4
7
ENDCHAR
STARTCHAR 3
ENCODING 51
SWIDTH 300 0
DWIDTH 4 0
BBX 3 5 0 0
BITMAP
7
1
7
1
7
ENDCHAR
STARTCHAR 4
ENCODING 52
SWIDTH 300 0
DWIDTH 4 0
BBX 3 5 0 0
BITMAP
5
5
7
1
1
ENDCHAR
STARTCHAR 5
ENCODING 53
SWIDTH 300 0
DWIDTH 4 0
BBX 3 5 0 0
BITMAP
7
4
7
1
7
ENDCHAR
STARTCHAR 6
ENCODING 54
SWIDTH 300 0
DWIDTH 4 0
BBX 3 5 0 0
BITMAP
7
4
7
5
7
ENDCHAR
STARTCHAR 7
ENCODING 55
SWIDTH 300 0
DWIDTH 4 0
BBX 3 5 0 0
BITMAP
7
1
1
1
1
ENDCHAR
STARTCHAR 8
ENCODING 56
SWIDTH 300 0
DWIDTH 4 0
BBX 3 5 0 0
BITMAP
7
5
7
5
7
ENDCHAR
STARTCHAR 9
ENCODING 57
SWIDTH 300 0
DWIDTH 4 0
BBX 3 5 0 0
BITMAP
7
5
7
1
7
ENDCHAR
ENDFONT
